<svg xmlns="http://www.w3.org/2000/svg" viewBox="0 0 512 512" role="img" aria-label="DANDUL">
  <title>DANDUL</title>
  <rect width="512" height="512" fill="none" />
  <path
    d="M38.74 108.46L13.46 108.46Q12.30 108.46 11.60 107.76Q10.90 107.07 10.90 105.91L10.90 105.91L10.90 29.93Q10.90 28.65 11.60 27.96Q12.30 27.26 13.46 27.26L13.46 27.26L38.16 27.26Q50.46 27.26 57.42 30.86Q64.38 34.45 67.34 41.47Q70.30 48.49 70.41 58.58L70.41 58.58Q70.53 63.80 70.53 67.80Q70.53 71.80 70.41 77.02L70.41 77.02Q70.18 87.70 67.28 94.66Q64.38 101.62 57.54 105.04Q50.69 108.46 38.74 108.46L38.74 108.46ZM18.21 34.22L18.21 101.50L38.16 101.50Q47.44 101.50 52.84 99.01Q58.23 96.51 60.61 91.00Q62.99 85.49 63.10 76.44L63.10 76.44Q63.22 72.96 63.22 70.35Q63.22 67.74 63.22 65.19Q63.22 62.64 63.10 59.16L63.10 59.16Q62.87 46.40 57.19 40.31Q51.50 34.22 37.58 34.22L37.58 34.22L18.21 34.22ZM85.96 108.46L83.64 108.46Q82.71 108.46 82.01 107.76Q81.32 107.07 81.32 106.14L81.32 106.14Q81.32 105.56 81.55 104.86L81.55 104.86L110.90 29.58Q111.36 28.42 112.11 27.84Q112.87 27.26 114.26 27.26L114.26 27.26L118.20 27.26Q119.60 27.26 120.35 27.84Q121.10 28.42 121.57 29.58L121.57 29.58L150.92 104.86Q151.15 105.56 151.15 106.14L151.15 106.14Q151.15 107.07 150.45 107.76Q149.76 108.46 148.83 108.46L148.83 108.46L146.51 108.46Q145.35 108.46 144.77 107.82Q144.19 107.18 143.96 106.72L143.96 106.72L136.76 88.16L95.70 88.16L88.51 106.72Q88.39 107.18 87.75 107.82Q87.12 108.46 85.96 108.46L85.96 108.46ZM116.23 35.50L98.48 81.20L133.98 81.20L116.23 35.50ZM169.48 108.46L167.39 108.46Q166.23 108.46 165.53 107.76Q164.84 107.07 164.84 105.91L164.84 105.91L164.84 29.93Q164.84 28.65 165.53 27.96Q166.23 27.26 167.39 27.26L167.39 27.26L169.82 27.26Q170.98 27.26 171.56 27.84Q172.14 28.42 172.26 28.65L172.26 28.65L215.06 94.08L215.06 29.93Q215.06 28.65 215.76 27.96Q216.46 27.26 217.62 27.26L217.62 27.26L219.70 27.26Q220.98 27.26 221.68 27.96Q222.37 28.65 222.37 29.93L222.37 29.93L222.37 105.79Q222.37 106.95 221.68 107.71Q220.98 108.46 219.82 108.46L219.82 108.46L217.27 108.46Q216.11 108.46 215.59 107.88Q215.06 107.30 214.83 107.07L214.83 107.07L172.14 41.88L172.14 105.91Q172.14 107.07 171.45 107.76Q170.75 108.46 169.48 108.46L169.48 108.46ZM272.02 108.46L246.73 108.46Q245.57 108.46 244.88 107.76Q244.18 107.07 244.18 105.91L244.18 105.91L244.18 29.93Q244.18 28.65 244.88 27.96Q245.57 27.26 246.73 27.26L246.73 27.26L271.44 27.26Q283.74 27.26 290.70 30.86Q297.66 34.45 300.61 41.47Q303.57 48.49 303.69 58.58L303.69 58.58Q303.80 63.80 303.80 67.80Q303.80 71.80 303.69 77.02L303.69 77.02Q303.46 87.70 300.56 94.66Q297.66 101.62 290.81 105.04Q283.97 108.46 272.02 108.46L272.02 108.46ZM251.49 34.22L251.49 101.50L271.44 101.50Q280.72 101.50 286.11 99.01Q291.51 96.51 293.89 91.00Q296.26 85.49 296.38 76.44L296.38 76.44Q296.50 72.96 296.50 70.35Q296.50 67.74 296.50 65.19Q296.50 62.64 296.38 59.16L296.38 59.16Q296.15 46.40 290.46 40.31Q284.78 34.22 270.86 34.22L270.86 34.22L251.49 34.22ZM351.94 109.62L351.94 109.62Q342.55 109.62 335.88 106.14Q329.21 102.66 325.61 95.47Q322.02 88.28 322.02 77.02L322.02 77.02L322.02 29.93Q322.02 28.65 322.71 27.96Q323.41 27.26 324.57 27.26L324.57 27.26L326.66 27.26Q327.93 27.26 328.63 27.96Q329.32 28.65 329.32 29.93L329.32 29.93L329.32 77.37Q329.32 90.36 335.41 96.51Q341.50 102.66 351.94 102.66L351.94 102.66Q362.27 102.66 368.36 96.51Q374.45 90.36 374.45 77.37L374.45 77.37L374.45 29.93Q374.45 28.65 375.20 27.96Q375.96 27.26 377.12 27.26L377.12 27.26L379.20 27.26Q380.36 27.26 381.06 27.96Q381.76 28.65 381.76 29.93L381.76 29.93L381.76 77.02Q381.76 88.28 378.22 95.47Q374.68 102.66 368.07 106.14Q361.46 109.62 351.94 109.62ZM450.20 108.46L405.42 108.46Q404.26 108.46 403.56 107.76Q402.87 107.07 402.87 105.91L402.87 105.91L402.87 29.81Q402.87 28.65 403.56 27.96Q404.26 27.26 405.42 27.26L405.42 27.26L407.62 27.26Q408.78 27.26 409.48 27.96Q410.18 28.65 410.18 29.81L410.18 29.81L410.18 101.50L450.20 101.50Q451.47 101.50 452.17 102.20Q452.86 102.89 452.86 104.17L452.86 104.17L452.86 105.91Q452.86 107.07 452.17 107.76Q451.47 108.46 450.20 108.46L450.20 108.46Z"
    transform="translate(28.234 187.270)"
    fill="#d87582"
    stroke="#d87582"
    stroke-width="7"
    stroke-linejoin="round"
    paint-order="stroke fill"
  />
</svg>


